<svg xmlns="http://www.w3.org/2000/svg" width="66" height="69" fill="none"><path stroke="#55E6A5" stroke-linecap="round" stroke-linejoin="round" stroke-width="3" d="m22.14 55.709-17.489 5.83A2.014 2.014 0 0 1 2 59.627V10.165c0-.867.555-1.636 1.377-1.91L22.141 2m0 53.709 17.49 5.83a2.014 2.014 0 0 0 2.65-1.912V10.165c0-.867-.554-1.636-1.377-1.91L22.141 2m0 53.709V2M42.281 8.716l17.49-5.83a2.014 2.014 0 0 1 2.65 1.91v37.488M49.4 67l7.122-7.121m0 0 7.12-7.121m-7.12 7.12-7.122-7.12m7.122 7.12L63.642 67"/></svg>