<svg xmlns="http://www.w3.org/2000/svg" width="1920" height="1080" version="1.0" viewBox="0 0 1440 810"><defs><clipPath id="a"><path d="M1123.941 436.805h266.121v244.5h-266.12Zm0 0"/></clipPath><clipPath id="b"><path d="M1123.941 436.805h266.121v244.5h-266.12Zm0 0"/></clipPath><clipPath id="c"><path d="M1048 379h32v46h-32Zm0 0"/></clipPath><clipPath id="d"><path d="m1000.668 357.102 145.992-70.211 51.035 106.117-145.996 70.21Zm0 0"/></clipPath><clipPath id="e"><path d="m1000.668 357.102 145.992-70.211 51.035 106.117-145.996 70.21Zm0 0"/></clipPath><clipPath id="f"><path d="M1067 367h30v46h-30Zm0 0"/></clipPath><clipPath id="g"><path d="m1000.668 357.102 145.992-70.211 51.035 106.117-145.996 70.21Zm0 0"/></clipPath><clipPath id="h"><path d="m1000.668 357.102 145.992-70.211 51.035 106.117-145.996 70.21Zm0 0"/></clipPath><clipPath id="i"><path d="M1083 362h30v38h-30Zm0 0"/></clipPath><clipPath id="j"><path d="m1000.668 357.102 145.992-70.211 51.035 106.117-145.996 70.21Zm0 0"/></clipPath><clipPath id="k"><path d="m1000.668 357.102 145.992-70.211 51.035 106.117-145.996 70.21Zm0 0"/></clipPath><clipPath id="l"><path d="M1097 353h30v37h-30Zm0 0"/></clipPath><clipPath id="m"><path d="m1000.668 357.102 145.992-70.211 51.035 106.117-145.996 70.21Zm0 0"/></clipPath><clipPath id="n"><path d="m1000.668 357.102 145.992-70.211 51.035 106.117-145.996 70.21Zm0 0"/></clipPath><clipPath id="o"><path d="M1113 338h31v42h-31Zm0 0"/></clipPath><clipPath id="p"><path d="m1000.668 357.102 145.992-70.211 51.035 106.117-145.996 70.21Zm0 0"/></clipPath><clipPath id="q"><path d="m1000.668 357.102 145.992-70.211 51.035 106.117-145.996 70.21Zm0 0"/></clipPath><clipPath id="r"><path d="M1131 312h23v41h-23Zm0 0"/></clipPath><clipPath id="s"><path d="m1000.668 357.102 145.992-70.211 51.035 106.117-145.996 70.21Zm0 0"/></clipPath><clipPath id="t"><path d="m1000.668 357.102 145.992-70.211 51.035 106.117-145.996 70.21Zm0 0"/></clipPath><clipPath id="u"><path d="M1154 358h8v12h-8Zm0 0"/></clipPath><clipPath id="v"><path d="m1000.668 357.102 145.992-70.211 51.035 106.117-145.996 70.21Zm0 0"/></clipPath><clipPath id="w"><path d="m1000.668 357.102 145.992-70.211 51.035 106.117-145.996 70.21Zm0 0"/></clipPath><clipPath id="x"><path d="M1023 296h152v143h-152Zm0 0"/></clipPath><clipPath id="y"><path d="m1000.668 357.102 145.992-70.211 51.035 106.117-145.996 70.21Zm0 0"/></clipPath><clipPath id="z"><path d="m1000.668 357.102 145.992-70.211 51.035 106.117-145.996 70.21Zm0 0"/></clipPath></defs><path fill="#fff" d="M-144-81h1728v972H-144z"/><path d="M-144-81h1728v972H-144z"/><g clip-path="url(#a)"><path d="m1382.906 499.254-.113-.27c-1.262-3.144-2.566-6.402-2.195-9.566.28-2.418 1.492-4.629 2.77-6.965.265-.496.538-.992.8-1.492 1.363-2.594 3.05-6.477 1.973-10.266-.614-2.152-2.418-4.054-4.594-4.836-1.77-.64-3.524-.457-4.934.504-2.277 1.559-2.687 4.246-3.043 6.614-.27 1.777-.523 3.457-1.445 4.59-.781.956-2.043 1.507-3.383 2.09-.949.413-1.926.835-2.836 1.445-4.863 3.273-5.36 10.132-3.687 15.476.707 2.285 1.73 4.465 2.718 6.57 1.204 2.567 2.344 4.997 2.965 7.606 2.309 9.687-4.375 20.773-14.023 23.254-6.066 1.562-12.707.14-19.14-1.235-7.9-1.683-16.067-3.433-23.442.22-10.879 5.386-13.285 19.41-13.758 27.288l-.094 1.914c-.207 3.989-.406 8.117-2.09 11.594-1.785 3.684-6.195 6.695-9.93 5.297-3.468-1.285-4.937-5.617-5.507-8.078-2.684-11.637 1.586-23.914 5.027-32.137 1.149-2.734 2.399-5.492 3.606-8.168 3.418-7.539 6.953-15.34 8.676-23.625 4.351-20.95-4.008-43.93-20.805-57.191-9.922-7.828-22.582-12.324-36.602-12.996-12.96-.63-26.757 2.132-38.843 7.761-13.57 6.332-26.196 16.032-38.239 29.418-4.34 4.309-8.21 9.149-11.644 14.328-.645.88-1.293 1.762-1.934 2.66-2.547-2.331-5.098-4.663-7.644-7-4.746-4.347-7.899-3.921-9.707-2.796-2.274 1.406-2.825 4.297-3.125 5.847-3.5 18.551-3.352 38.141.43 56.692-6.43 13.347-6.895 32.75-1.227 52.035 6.215 21.133 15.965 36.66 30.668 48.875 27.687 22.988 62.75 36.074 98.722 36.844 1.04.02 2.067.035 3.082.035 11.48 0 21.149-1.473 29.47-4.485 17.765-6.433 33.136-21.77 41.12-41.03 7.086-17.098 8.836-37.31 5.059-58.43-.7-3.918-1.121-8.633 1.824-10.375 1.277-.75 2.988-.754 4.629-.696 1.824.07 3.707.188 5.527.305 7.094.45 14.43.918 21.27-1.547 12.754-4.586 19.633-18.23 20.785-29.727 1.32-13.195-3.121-26.363-7.137-36.351"/></g><path fill="#fff" d="M1205.988 480.48c5.102-8.832 5.582-18.113 1.074-20.71-4.511-2.606-12.304 2.449-17.406 11.285s-5.582 18.113-1.07 20.715c4.508 2.605 12.3-2.45 17.402-11.29m4.985 25.29c.254-1.145-1.52-.961-1.95-.329-2.597 3.88-5.96 10.094-11.187 5.567-3.34-2.895-4.422-7.875-2.945-11.98.39-1.098-1.371-1.43-1.797-.528-2.567 5.406-1.16 12.586 4.199 15.805 6.559 3.941 12.332-2.496 13.68-8.535m34.586-7.864c5.996-10.379 6.558-21.273 1.261-24.332-5.3-3.062-14.457 2.875-20.449 13.258-5.992 10.379-6.562 21.281-1.262 24.34 5.297 3.055 14.454-2.879 20.45-13.266m10.566 55.684c.742 1.129 2.96.285 2.379-1.082-3.531-8.285-9.117-15.774-14.961-22.563-4.406-5.129-10.465-13.074-18.262-11.004-8.582 2.274-7.101 12.711-6.05 19.254.777 4.828 1.55 9.66 2.374 14.48.782 4.606 1.016 10.2 3.004 14.442.243.504 1.317.446 1.395-.164.457-3.797-.617-8.02-1.168-11.785-.582-3.988-1.172-7.98-1.797-11.973-.625-4.035-1.555-8.164-1.766-12.258-.195-3.87.965-9.585 5.797-9.875 3.793-.226 6.86 2.817 9.262 5.36a117 117 0 0 1 7.328 8.594c4.594 5.91 8.356 12.328 12.465 18.574m65.488 68.277c.157-1.265-1.898-1.144-2.18-.097-4.23 15.734-13.39 30.046-27.554 38.535-15.477 9.273-34.734 10.25-51.484 3.972-.82-.312-2.016.93-.98 1.403 26.41 11.996 58.796 1.949 74.253-22.457 4.129-6.512 7.016-13.672 7.945-21.356m58.836-121.62c3.906 9.702 8.227 22.476 6.965 35.1-1.074 10.66-7.379 23.298-19.047 27.5-6.328 2.274-13.387 1.825-20.215 1.391a216 216 0 0 0-5.597-.304c-1.942-.075-4.172-.059-6.063 1.058-4.355 2.57-3.937 8.36-3.086 13.117 3.688 20.625 1.992 40.317-4.898 56.957-7.707 18.582-22.504 33.368-39.582 39.555-8.738 3.16-19.074 4.563-31.594 4.293-35.379-.762-69.852-13.633-97.082-36.242-14.29-11.86-23.762-26.98-29.824-47.586-5.543-18.856-5.07-37.746 1.258-50.527.129-.262.168-.567.109-.856-3.797-18.34-3.973-37.742-.508-56.098.3-1.593.73-3.363 1.914-4.097.399-.25.844-.36 1.309-.36 1.695 0 3.695 1.461 5.222 2.864 2.73 2.5 5.461 5.004 8.188 7.5-5.742 9.828-10.031 20.617-12.988 31.25-.262.953 1.457.968 1.726.14a152.5 152.5 0 0 1 11.692-26.527c2.324-4.168 4.914-8.137 7.613-12.027 14.434-18.68 29.582-31.578 46.133-39.293 11.699-5.461 25.058-8.13 37.597-7.524 13.47.653 25.606 4.95 35.09 12.434 16.032 12.656 24.004 34.586 19.852 54.574-1.66 8-5.137 15.66-8.488 23.074-1.22 2.688-2.48 5.469-3.641 8.235-3.582 8.562-8.024 21.375-5.164 33.754 1.191 5.148 3.734 8.687 7.168 9.964 5.246 1.957 10.953-1.91 13.23-6.625 1.914-3.964 2.133-8.359 2.348-12.617l.094-1.883c.437-7.312 2.605-20.28 12.289-25.074 6.55-3.246 13.922-1.672 21.715-.008 6.73 1.442 13.683 2.93 20.355 1.211 11.16-2.87 18.606-15.222 15.934-26.43-.684-2.874-1.93-5.538-3.145-8.117-.988-2.113-1.922-4.117-2.586-6.234-1.332-4.266-1.074-9.992 2.633-12.492.715-.473 1.543-.832 2.426-1.215 1.566-.684 3.191-1.387 4.379-2.848 1.37-1.695 1.71-3.91 2.004-5.859.32-2.102.593-3.922 1.921-4.824.887-.61 1.875-.45 2.543-.203 1.383.5 2.563 1.734 2.95 3.07.816 2.875-.618 6.121-1.774 8.316-.25.485-.515.965-.785 1.454-1.344 2.453-2.726 5-3.066 7.917-.45 3.836.984 7.407 2.367 10.864z"/><g clip-path="url(#b)"><path d="M1189.656 471.055c-5.101 8.836-5.582 18.113-1.07 20.715 4.508 2.605 12.3-2.45 17.402-11.29 5.102-8.832 5.582-18.113 1.074-20.71-4.511-2.606-12.304 2.449-17.406 11.285m8.18 39.953c-3.34-2.895-4.422-7.875-2.945-11.98.39-1.098-1.371-1.43-1.797-.528-2.567 5.406-1.16 12.586 4.199 15.805 6.559 3.941 12.332-2.496 13.68-8.535.254-1.145-1.52-.961-1.95-.329-2.597 3.88-5.96 10.094-11.187 5.567m28.535-24.176c-5.992 10.379-6.562 21.281-1.262 24.34 5.297 3.055 14.454-2.879 20.45-13.266 5.996-10.379 6.558-21.273 1.261-24.332-5.3-3.062-14.457 2.875-20.449 13.258m17.172 43.113c-4.406-5.129-10.465-13.074-18.262-11.004-8.582 2.274-7.101 12.711-6.05 19.254.777 4.828 1.55 9.66 2.374 14.48.782 4.606 1.016 10.2 3.004 14.442.243.504 1.317.446 1.395-.164.457-3.797-.617-8.02-1.168-11.785-.582-3.988-1.172-7.98-1.797-11.973-.625-4.035-1.555-8.164-1.766-12.258-.195-3.87.965-9.585 5.797-9.875 3.793-.226 6.86 2.817 9.262 5.36a117 117 0 0 1 7.328 8.594c4.594 5.91 8.356 12.328 12.465 18.574.742 1.129 2.96.285 2.379-1.082-3.531-8.285-9.117-15.774-14.961-22.563m48.336 130.36c-15.477 9.273-34.734 10.25-51.484 3.972-.82-.312-2.016.93-.98 1.403 26.41 11.996 58.796 1.949 74.253-22.457 4.129-6.512 7.016-13.672 7.945-21.356.157-1.265-1.898-1.144-2.18-.097-4.23 15.734-13.39 30.046-27.554 38.535m95.535-124.957c1.262-12.625-3.059-25.399-6.965-35.102l-.11-.277c-1.382-3.457-2.816-7.028-2.366-10.864.34-2.918 1.722-5.464 3.066-7.918.27-.488.535-.968.785-1.453 1.156-2.195 2.59-5.441 1.774-8.316-.387-1.336-1.567-2.57-2.95-3.07-.668-.246-1.656-.407-2.543.203-1.328.902-1.601 2.722-1.921 4.824-.293 1.95-.633 4.164-2.004 5.86-1.188 1.46-2.813 2.163-4.38 2.847-.882.383-1.71.742-2.425 1.215-3.707 2.5-3.965 8.226-2.633 12.492.664 2.117 1.598 4.121 2.586 6.234 1.215 2.579 2.461 5.243 3.145 8.118 2.672 11.207-4.774 23.558-15.934 26.43-6.672 1.718-13.625.23-20.355-1.212-7.793-1.664-15.164-3.238-21.715.008-9.684 4.793-11.852 17.762-12.29 25.074l-.093 1.883c-.215 4.258-.434 8.653-2.348 12.617-2.277 4.715-7.984 8.582-13.23 6.625-3.434-1.277-5.977-4.816-7.168-9.964-2.86-12.38 1.582-25.192 5.164-33.754 1.16-2.766 2.422-5.547 3.64-8.235 3.352-7.414 6.829-15.074 8.489-23.074 4.152-19.988-3.82-41.918-19.852-54.574-9.484-7.485-21.62-11.781-35.09-12.434-12.539-.605-25.898 2.063-37.597 7.524-16.551 7.715-31.7 20.613-46.133 39.293-2.7 3.89-5.29 7.859-7.613 12.027a152.5 152.5 0 0 0-11.692 26.527c-.27.828-1.988.813-1.726-.14 2.957-10.633 7.246-21.422 12.988-31.25-2.727-2.496-5.457-5-8.188-7.5-1.527-1.403-3.527-2.864-5.222-2.864-.465 0-.91.11-1.309.36-1.183.734-1.613 2.504-1.914 4.097-3.465 18.356-3.289 37.758.508 56.098.059.29.02.594-.11.856-6.328 12.78-6.8 31.671-1.257 50.527 6.062 20.605 15.535 35.726 29.824 47.586 27.23 22.61 61.703 35.48 97.082 36.242 12.52.27 22.855-1.133 31.594-4.293 17.078-6.187 31.875-20.973 39.582-39.555 6.89-16.64 8.586-36.332 4.898-56.957-.851-4.757-1.27-10.547 3.086-13.117 1.89-1.117 4.121-1.133 6.063-1.058 1.863.07 3.765.187 5.597.304 6.828.434 13.887.883 20.215-1.39 11.668-4.203 17.973-16.84 19.047-27.5m-4.508-36.094c4.016 9.988 8.457 23.156 7.137 36.351-1.152 11.497-8.031 25.141-20.785 29.727-6.84 2.465-14.176 1.996-21.27 1.547-1.82-.117-3.703-.234-5.527-.305-1.64-.058-3.352-.054-4.629.696-2.945 1.742-2.523 6.457-1.824 10.375 3.777 21.12 2.027 41.332-5.059 58.43-7.984 19.26-23.355 34.597-41.12 41.03-8.321 3.012-17.99 4.485-29.47 4.485-1.015 0-2.043-.016-3.082-.035-35.972-.77-71.035-13.856-98.722-36.844-14.703-12.215-24.453-27.742-30.668-48.875-5.668-19.285-5.203-38.688 1.226-52.035-3.781-18.551-3.93-38.14-.43-56.692.301-1.55.852-4.441 3.126-5.847 1.808-1.125 4.96-1.551 9.707 2.797 2.546 2.336 5.097 4.668 7.644 7 .64-.899 1.29-1.782 1.934-2.66 3.433-5.18 7.304-10.02 11.64-14.329 12.047-13.386 24.672-23.086 38.243-29.418 12.085-5.629 25.882-8.39 38.843-7.761 14.02.671 26.68 5.168 36.602 12.996 16.797 13.261 25.156 36.242 20.805 57.191-1.723 8.285-5.258 16.086-8.676 23.625-1.207 2.676-2.457 5.434-3.606 8.168-3.441 8.223-7.71 20.5-5.027 32.137.57 2.46 2.039 6.793 5.508 8.078 3.734 1.398 8.144-1.613 9.93-5.297 1.683-3.476 1.882-7.605 2.09-11.594.03-.644.062-1.277.093-1.914.473-7.879 2.879-21.902 13.758-27.289 7.375-3.652 15.543-1.902 23.441-.219 6.434 1.375 13.074 2.797 19.14 1.235 9.65-2.48 16.333-13.567 14.024-23.254-.62-2.61-1.761-5.04-2.965-7.606-.988-2.105-2.011-4.285-2.718-6.57-1.672-5.344-1.176-12.203 3.687-15.476.91-.61 1.887-1.032 2.836-1.446 1.34-.582 2.602-1.133 3.383-2.09.922-1.132 1.176-2.812 1.445-4.59.356-2.367.766-5.054 3.043-6.613 1.41-.96 3.164-1.144 4.934-.504 2.176.782 3.98 2.684 4.594 4.836 1.078 3.79-.61 7.672-1.973 10.266-.262.5-.535.996-.8 1.492-1.278 2.336-2.49 4.547-2.77 6.965-.371 3.164.933 6.422 2.195 9.566z"/></g><g clip-path="url(#c)"><g clip-path="url(#d)"><g clip-path="url(#e)"><path fill="#fff" d="M1078.828 412.668a470 470 0 0 1-15.668-31.977c-1.101-2.476-5.055-1.003-3.957 1.47 1.45 3.257 2.934 6.5 4.461 9.722l-7.215 4.344a266 266 0 0 1-4.008-8.227c-1.144-2.453-5.105-.996-3.957 1.469a272 272 0 0 0 18.758 33.812c1.488 2.281 4.918-.16 3.446-2.437a265 265 0 0 1-12.297-20.875l.046-.024 7.043-4.246a497 497 0 0 0 9.895 19.403c.543 1.011 2.09 1.093 2.941.503 1.04-.707 1.047-1.937.512-2.937m0 0"/></g></g></g><g clip-path="url(#f)"><g clip-path="url(#g)"><g clip-path="url(#h)"><path fill="#fff" d="M1071.992 378.398c.625-1.296 2.457-2.363 3.516-3.277l4.734-4.074c2.047-1.762-.379-5.219-2.437-3.45l-5.348 4.606c-1.453 1.25-3.145 2.45-4.117 4.129-2.13 3.711 1.144 7.852 2.855 11.04l13.11 24.421c.402.746 1.707 1.144 2.46.762a38.2 38.2 0 0 0 9.676-6.985c.809-.8.52-2.3-.3-2.976-.961-.79-2.157-.508-2.977.297q-2.848 2.806-6.3 4.828-3.803-7.077-7.598-14.149.52-.334.777-.898.188-.4.492-.711a2.61 2.61 0 0 1 2.399-.738c2.68.457 3.347-3.711.664-4.172a6.9 6.9 0 0 0-3.586.351 6.9 6.9 0 0 0-2.918 2.114l-.89-1.657-2.895-5.37c-.547-1.055-1.918-2.84-1.317-4.09m0 0"/></g></g></g><g clip-path="url(#i)"><g clip-path="url(#j)"><g clip-path="url(#k)"><path fill="#fff" d="m1109.285 389.984-7.07 4.336a1055 1055 0 0 1-14.738-30.812c-1.13-2.461-5.086-.992-3.961 1.472a1056 1056 0 0 0 15.87 33.075c.63 1.257 1.946 1.757 3.2.988l9.133-5.621c2.32-1.418-.133-4.856-2.434-3.438m0 0"/></g></g></g><g clip-path="url(#l)"><g clip-path="url(#m)"><g clip-path="url(#n)"><path fill="#fff" d="M1123.7 380.488a29.4 29.4 0 0 0-6.915 3.692 258 258 0 0 1-15.234-29.524c-1.082-2.484-5.043-1.023-3.953 1.469a265.5 265.5 0 0 0 16.898 32.406c.559.914 2.113 1.211 2.941.508a25.4 25.4 0 0 1 7.727-4.59c2.555-.96 1.074-4.91-1.465-3.96m0 0"/></g></g></g><g clip-path="url(#o)"><g clip-path="url(#p)"><g clip-path="url(#q)"><path fill="#fff" d="M1139.48 353.332a47.6 47.6 0 0 0-5.668-7.89c-3.722-4.145-9.777-9.114-15.453-5.399-2.554 1.672-4.535 4.918-4.898 7.937-.41 3.41.469 6.934 1.574 10.137a51.8 51.8 0 0 0 5.297 10.832c1.898 2.992 4.145 5.969 6.922 8.203 3.566 2.875 8.094 3.414 11.914.477 5.387-4.137 5.289-11.184 3.645-17.149-.723-2.527-2.028-4.906-3.333-7.148m-7.234 21.969q.032.017.063.027c-9.391-1.39-1.352-.219-.059-.035Zm4.32-1.004a5.56 5.56 0 0 1-2.562 1.105 4.1 4.1 0 0 1-1.203 0l-.38-.058-.054-.024.047.008-.062-.015-.079-.028c-1.195-.433-1.562-.742-2.53-1.547-4.755-3.945-8.153-10.172-10.333-15.93-1.015-2.68-1.906-5.585-1.84-8.48q.029-1.358.606-2.582c.531-1.09 1.441-2.36 2.117-2.89a7 7 0 0 1 .672-.473c.113-.055.113-.078.11-.078q.134-.044.26-.098c.587-.23.352-.168 1.08-.25.089-.012.19-.016.284-.016l.086.004q.369.03.738.102.664.094 1.25.418c1.922.84 3.98 2.648 5.512 4.312 3.688 4.059 7.078 8.996 8.582 14.168 1.117 4.086 1.567 9.508-2.297 12.34Zm0 0"/></g></g></g><g clip-path="url(#r)"><g clip-path="url(#s)"><g clip-path="url(#t)"><path fill="#fff" d="M1152.766 348.918a181.5 181.5 0 0 1-16.801-34.703c-.918-2.563-4.875-1.09-3.957 1.473a187 187 0 0 0 17.308 35.66c1.442 2.32 4.88-.133 3.45-2.43m0 0"/></g></g></g><g clip-path="url(#u)"><g clip-path="url(#v)"><g clip-path="url(#w)"><path fill="#fff" d="m1154.223 361.383 3.386 7.039c1.172 2.433 5.133.969 3.961-1.469l-3.386-7.043c-1.172-2.433-5.137-.98-3.961 1.473m0 0"/></g></g></g><g clip-path="url(#x)"><g clip-path="url(#y)"><g clip-path="url(#z)"><path fill="#fff" d="M1162.887 320.945c-3.344-6.843-7-13.96-12.934-18.945-5.723-4.809-13.168-6.512-20.441-4.914-7.418 1.625-14.047 5.73-20.11 10.168-7.57 5.543-14.882 11.469-22.3 17.219-13.598 10.539-27.325 21.054-39.313 33.453-5.84 6.035-11.219 12.523-15.77 19.586a99 99 0 0 0-6.175 10.91c-1.727 3.617-3.14 7.644-2.742 11.719.433 4.476 3.164 8.109 5.933 11.464 4.031 4.907 7.445 10.29 11.43 15.23 3.656 4.524 8.012 8.95 13.62 10.938 13.454 4.758 25.063-6.246 38.106-7.128q4.906-.371 9.266 1.914c3.203 1.683 6.496 3.73 10.18 2.023 6.64-3.074 6.61-12.465 9.36-18.27 2.69-5.664 7.597-9.808 12.737-13.207 5.7-3.773 11.844-6.804 17.72-10.285 5.76-3.414 11.425-7.34 15.632-12.629a33 33 0 0 0 4.98-8.808 33 33 0 0 0 2.106-9.903c.863-14.238-5.176-28.035-11.285-40.535m1.406 13.317c2.52 6.21 4.64 12.664 5.437 19.34.743 6.234.235 12.62-2.453 18.355-2.66 5.688-7.238 10.04-12.308 13.602-10.504 7.382-23.297 11.746-32.332 21.148a30.1 30.1 0 0 0-5.262 7.406c-1.488 2.98-2.156 6.23-3.152 9.387-.758 2.41-1.852 6.543-4.664 7.36-1.563.456-3.036-.305-4.371-1.044-1.489-.824-2.926-1.671-4.536-2.234-6.332-2.215-12.91-.95-19.082 1.172-6.011 2.066-11.957 5.262-18.351 5.926-12.047 1.242-19.176-9.828-25.328-18.364-1.75-2.43-3.52-4.84-5.418-7.152-2.602-3.156-5.43-6.586-5.223-10.918.176-3.773 1.996-7.32 3.707-10.61 3.688-7.077 8.3-13.613 13.445-19.695 10.504-12.421 23.125-22.824 35.883-32.828 7.063-5.535 14.176-11.008 21.27-16.508 6.21-4.816 12.324-9.94 19.257-13.707 5.833-3.168 12.735-5.398 19.34-3.523 6.993 1.984 11.637 8.055 15.121 14.066 3.489 6.012 6.415 12.41 9.016 18.82Zm0 0"/></g></g></g></svg>